<svg xmlns="http://www.w3.org/2000/svg" viewBox="0 0 36 36">
  <!-- Owl SVG representation -->
  <circle cx="18" cy="18" r="18" fill="#FFCC4D"/>
  <path fill="#664500" d="M27.335 14.704c0 4.224-4.159 5.091-9.335 5.091-5.176 0-9.335-.867-9.335-5.091 0-4.223 4.159-10.295 9.335-10.295 5.176 0 9.335 6.072 9.335 10.295z"/>
  <path fill="#E1E8ED" d="M13.366 14.704c0 1.927-1.776 3.489-3.968 3.489s-3.968-1.562-3.968-3.489c0-1.926 1.776-3.489 3.968-3.489s3.968 1.563 3.968 3.489zm16.57 0c0 1.927-1.776 3.489-3.968 3.489s-3.968-1.562-3.968-3.489c0-1.926 1.776-3.489 3.968-3.489s3.968 1.563 3.968 3.489z"/>
  <circle cx="9.398" cy="14.704" r="2.48" fill="#664500"/>
  <circle cx="26.602" cy="14.704" r="2.48" fill="#664500"/>
  <path fill="#664500" d="M23.709 21.759s-2.295 2.014-5.709 2.014c-3.414 0-5.709-2.014-5.709-2.014-.189-.166-.479-.152-.652.031-.173.183-.163.467.022.636.585.535 3.068 2.571 6.339 2.571s5.754-2.035 6.339-2.571c.185-.169.195-.453.022-.636-.173-.183-.463-.197-.652-.031z"/>
  <path fill="#E1E8ED" d="M18 27.381c-2.207 0-4.5-.728-4.5-2.381h9c0 1.653-2.293 2.381-4.5 2.381z"/>
  <path fill="#664500" d="M13.5 24.619V26c0 .829 2.017 1.5 4.5 1.5s4.5-.671 4.5-1.5v-1.381h-9z"/>
</svg> 